<?xml version="1.0" encoding="utf-8" ?>
<svg baseProfile="full" height="100%" version="1.1" width="100%" xmlns="http://www.w3.org/2000/svg" xmlns:ev="http://www.w3.org/2001/xml-events" xmlns:xlink="http://www.w3.org/1999/xlink"><defs><marker id="arrow" markerHeight="10" markerUnits="strokeWidth" markerWidth="10" orient="auto" refX="0" refY="1"><path d="M0,0 L0,2 L3,1 z" fill="#0000FF" /></marker><marker id="arrow" markerHeight="10" markerUnits="strokeWidth" markerWidth="10" orient="auto" refX="0" refY="1"><path d="M0,0 L0,2 L3,1 z" fill="#0000FF" /></marker></defs><path d="M 300.0 230.0 A 70 70 0 0 1 326.78784026555627 235.32843272420993 L 319.13417161825447 253.80602337443565 A 50 50 0 0 0 300.0 250.0 Z" fill="#A17FFF" fill-opacity="0.1" stroke="#A17FFF" stroke-width="3" /><path d="M 326.78784026555627 235.32843272420993 A 70 70 0 0 1 349.49747468305833 250.50252531694167 L 335.3553390593274 264.6446609406726 A 50 50 0 0 0 319.13417161825447 253.80602337443565 Z" fill="#A17FFF" fill-opacity="0.1" stroke="#A17FFF" stroke-width="3" /><path d="M 349.49747468305833 250.50252531694167 A 70 70 0 0 1 364.67156727579004 273.21215973444373 L 346.19397662556435 280.86582838174553 A 50 50 0 0 0 335.3553390593274 264.6446609406726 Z" fill="#A17FFF" fill-opacity="0.1" stroke="#A17FFF" stroke-width="3" /><path d="M 364.67156727579004 273.21215973444373 A 70 70 0 0 1 370.0 300.0 L 350.0 300.0 A 50 50 0 0 0 346.19397662556435 280.86582838174553 Z" fill="#A17FFF" fill-opacity="0.1" stroke="#A17FFF" stroke-width="3" /><path d="M 370.0 300.0 A 70 70 0 0 1 364.67156727579004 326.78784026555627 L 346.19397662556435 319.13417161825447 A 50 50 0 0 0 350.0 300.0 Z" fill="#A17FFF" fill-opacity="0.4" stroke="#A17FFF" stroke-width="3" /><path d="M 364.67156727579004 326.78784026555627 A 70 70 0 0 1 349.49747468305833 349.49747468305833 L 335.3553390593274 335.3553390593274 A 50 50 0 0 0 346.19397662556435 319.13417161825447 Z" fill="#A17FFF" fill-opacity="0.4" stroke="#A17FFF" stroke-width="3" /><path d="M 349.49747468305833 349.49747468305833 A 70 70 0 0 1 326.78784026555627 364.67156727579004 L 319.13417161825447 346.19397662556435 A 50 50 0 0 0 335.3553390593274 335.3553390593274 Z" fill="#A17FFF" fill-opacity="0.4" stroke="#A17FFF" stroke-width="3" /><path d="M 326.78784026555627 364.67156727579004 A 70 70 0 0 1 300.0 370.0 L 300.0 350.0 A 50 50 0 0 0 319.13417161825447 346.19397662556435 Z" fill="#A17FFF" fill-opacity="0.4" stroke="#A17FFF" stroke-width="3" /><path d="M 300.0 370.0 A 70 70 0 0 1 273.21215973444373 364.67156727579004 L 280.86582838174553 346.19397662556435 A 50 50 0 0 0 300.0 350.0 Z" fill="#A17FFF" fill-opacity="0.4" stroke="#A17FFF" stroke-width="3" /><path d="M 273.21215973444373 364.67156727579004 A 70 70 0 0 1 250.50252531694167 349.49747468305833 L 264.6446609406726 335.3553390593274 A 50 50 0 0 0 280.86582838174553 346.19397662556435 Z" fill="#A17FFF" fill-opacity="0.4" stroke="#A17FFF" stroke-width="3" /><path d="M 250.50252531694167 349.49747468305833 A 70 70 0 0 1 235.32843272420993 326.78784026555627 L 253.80602337443565 319.13417161825447 A 50 50 0 0 0 264.6446609406726 335.3553390593274 Z" fill="#A17FFF" fill-opacity="0.4" stroke="#A17FFF" stroke-width="3" /><path d="M 235.32843272420996 326.7878402655563 A 70 70 0 0 1 230.0 300.00000000000006 L 250.0 300.0 A 50 50 0 0 0 253.80602337443568 319.1341716182545 Z" fill="#A17FFF" fill-opacity="0.1" stroke="#A17FFF" stroke-width="3" /><path d="M 230.0 300.0 A 70 70 0 0 1 235.3284327242099 273.21215973444373 L 253.80602337443565 280.86582838174553 A 50 50 0 0 0 250.0 300.0 Z" fill="#A17FFF" fill-opacity="0.1" stroke="#A17FFF" stroke-width="3" /><path d="M 235.32843272420993 273.2121597344437 A 70 70 0 0 1 250.50252531694167 250.50252531694167 L 264.6446609406726 264.6446609406726 A 50 50 0 0 0 253.80602337443565 280.8658283817455 Z" fill="#A17FFF" fill-opacity="0.1" stroke="#A17FFF" stroke-width="3" /><path d="M 250.50252531694167 250.50252531694167 A 70 70 0 0 1 273.2121597344437 235.32843272420996 L 280.8658283817455 253.80602337443568 A 50 50 0 0 0 264.6446609406726 264.6446609406726 Z" fill="#A17FFF" fill-opacity="0.1" stroke="#A17FFF" stroke-width="3" /><path d="M 273.2121597344437 235.32843272420996 A 70 70 0 0 1 300.0 230.0 L 300.0 250.0 A 50 50 0 0 0 280.8658283817455 253.80602337443568 Z" fill="#A17FFF" fill-opacity="0.1" stroke="#A17FFF" stroke-width="3" /><line marker-end="url(#arrow)" stroke="#0000FF" stroke-width="3" x1="388.27067523629074" x2="378.46282243225846" y1="317.55812898145155" y2="315.60722576129024" /><path d="M 383.3667488342746 316.5826773713709 A 85.0 85.0 0 0 1 370.67491704571637 347.2234698066662" fill-opacity="0.0" marker-end="url(#arrow)" stroke="#0000FF" stroke-width="3" /><path d="M 390.2322457970972 317.9483096254838 A 92.0 92.0 0 1 1 391.3622980398532 289.1865594338789 Z" fill-opacity="0.0" id="id1" stroke="#A17FFF" stroke-width="0" /><text><textPath font-family="consolas" xlink:href="#id1">next read</textPath></text><line marker-end="url(#arrow)" stroke="#0000FF" stroke-width="3" x1="211.72932476370926" x2="221.53717756774157" y1="317.55812898145155" y2="315.6072257612903" /><path d="M 216.63325116572543 316.58267737137095 A 85.0 85.0 0 0 1 216.6332511657254 283.4173226286291" fill-opacity="0.0" marker-end="url(#arrow)" stroke="#0000FF" stroke-width="3" /><path d="M 209.7677542029028 317.94830962548383 A 92.0 92.0 0 1 1 219.73036734930272 344.95315421772 Z" fill-opacity="0.0" id="id2" stroke="#A17FFF" stroke-width="0" /><text><textPath font-family="consolas" xlink:href="#id2">next write</textPath></text><path d="M 306.50074146539805 246.3927210129067 A 54.0 54.0 0 1 1 289.61701230220604 247.00760840962676 Z" fill-opacity="0.0" id="id3" stroke="#A17FFF" stroke-width="0" /><text><textPath font-family="consolas" xlink:href="#id3">A</textPath></text><path d="M 326.5205195085625 252.9610582070987 A 54.0 54.0 0 1 1 310.68668048273065 247.06801666043464 Z" fill-opacity="0.0" id="id4" stroke="#A17FFF" stroke-width="0" /><text><textPath font-family="consolas" xlink:href="#id4">B</textPath></text><path d="M 342.5027888656563 266.69064788019074 A 54.0 54.0 0 1 1 330.12939843475925 255.1868395450675 Z" fill-opacity="0.0" id="id5" stroke="#A17FFF" stroke-width="0" /><text><textPath font-family="consolas" xlink:href="#id5">C</textPath></text><path d="M 352.01439390669447 285.4912844634949 A 54.0 54.0 0 1 1 344.98518859877277 270.12805987665274 Z" fill-opacity="0.0" id="id6" stroke="#A17FFF" stroke-width="0" /><text><textPath font-family="consolas" xlink:href="#id6">D</textPath></text><path d="M 353.6072789870933 306.50074146539805 A 54.0 54.0 0 1 1 352.99239159037324 289.6170123022061 Z" fill-opacity="0.0" id="id7" stroke="#A17FFF" stroke-width="0" /><text><textPath font-family="consolas" xlink:href="#id7">E</textPath></text><path d="M 347.0389417929013 326.5205195085625 A 54.0 54.0 0 1 1 352.93198333956536 310.68668048273065 Z" fill-opacity="0.0" id="id8" stroke="#A17FFF" stroke-width="0" /><text><textPath font-family="consolas" xlink:href="#id8">F</textPath></text><path d="M 333.30935211980926 342.5027888656563 A 54.0 54.0 0 1 1 344.8131604549325 330.12939843475925 Z" fill-opacity="0.0" id="id9" stroke="#A17FFF" stroke-width="0" /><text><textPath font-family="consolas" xlink:href="#id9">G</textPath></text><path d="M 314.5087155365051 352.01439390669447 A 54.0 54.0 0 1 1 329.87194012334726 344.98518859877277 Z" fill-opacity="0.0" id="id10" stroke="#A17FFF" stroke-width="0" /><text><textPath font-family="consolas" xlink:href="#id10">H</textPath></text><path d="M 293.499258534602 353.6072789870933 A 54.0 54.0 0 1 1 310.38298769779396 352.99239159037324 Z" fill-opacity="0.0" id="id11" stroke="#A17FFF" stroke-width="0" /><text><textPath font-family="consolas" xlink:href="#id11">I</textPath></text><path d="M 273.4794804914375 347.0389417929013 A 54.0 54.0 0 1 1 289.3133195172693 352.93198333956536 Z" fill-opacity="0.0" id="id12" stroke="#A17FFF" stroke-width="0" /><text><textPath font-family="consolas" xlink:href="#id12">J</textPath></text><path d="M 257.4972111343437 333.30935211980926 A 54.0 54.0 0 1 1 269.87060156524075 344.8131604549325 Z" fill-opacity="0.0" id="id13" stroke="#A17FFF" stroke-width="0" /><text><textPath font-family="consolas" xlink:href="#id13">K</textPath></text><path d="M 308.9084234896195 226.53817323990918 A 74.0 74.0 0 1 1 285.7714613030231 227.38079670948855 Z" fill-opacity="0.0" id="id14" stroke="#A17FFF" stroke-width="0" /><text><textPath font-family="consolas" xlink:href="#id14">0</textPath></text><path d="M 336.3429341413634 235.53922791343155 A 74.0 74.0 0 1 1 314.6447102911494 227.46357838652153 Z" fill-opacity="0.0" id="id15" stroke="#A17FFF" stroke-width="0" /><text><textPath font-family="consolas" xlink:href="#id15">1</textPath></text><path d="M 358.2445625196031 254.3538507987799 A 74.0 74.0 0 1 1 341.28843489207753 238.58937270990734 Z" fill-opacity="0.0" id="id16" stroke="#A17FFF" stroke-width="0" /><text><textPath font-family="consolas" xlink:href="#id16">2</textPath></text><path d="M 371.27898424250725 280.1176861166411 A 74.0 74.0 0 1 1 361.64636956128123 259.0643783494871 Z" fill-opacity="0.0" id="id17" stroke="#A17FFF" stroke-width="0" /><text><textPath font-family="consolas" xlink:href="#id17">3</textPath></text><path d="M 373.46182676009084 308.90842348961957 A 74.0 74.0 0 1 1 372.61920329051145 285.77146130302316 Z" fill-opacity="0.0" id="id18" stroke="#A17FFF" stroke-width="0" /><text><textPath font-family="consolas" xlink:href="#id18"> </textPath></text><path d="M 364.46077208656845 336.3429341413634 A 74.0 74.0 0 1 1 372.53642161347847 314.6447102911494 Z" fill-opacity="0.0" id="id19" stroke="#A17FFF" stroke-width="0" /><text><textPath font-family="consolas" xlink:href="#id19"> </textPath></text><path d="M 345.6461492012201 358.2445625196031 A 74.0 74.0 0 1 1 361.4106272900927 341.28843489207753 Z" fill-opacity="0.0" id="id20" stroke="#A17FFF" stroke-width="0" /><text><textPath font-family="consolas" xlink:href="#id20">6</textPath></text><path d="M 319.8823138833589 371.27898424250725 A 74.0 74.0 0 1 1 340.9356216505129 361.64636956128123 Z" fill-opacity="0.0" id="id21" stroke="#A17FFF" stroke-width="0" /><text><textPath font-family="consolas" xlink:href="#id21">7</textPath></text><path d="M 291.0915765103805 373.46182676009084 A 74.0 74.0 0 1 1 314.2285386969769 372.61920329051145 Z" fill-opacity="0.0" id="id22" stroke="#A17FFF" stroke-width="0" /><text><textPath font-family="consolas" xlink:href="#id22">8</textPath></text><path d="M 263.6570658586366 364.46077208656845 A 74.0 74.0 0 1 1 285.35528970885053 372.5364216134784 Z" fill-opacity="0.0" id="id23" stroke="#A17FFF" stroke-width="0" /><text><textPath font-family="consolas" xlink:href="#id23">9</textPath></text><path d="M 241.7554374803969 345.64614920122006 A 74.0 74.0 0 1 1 258.71156510792247 361.4106272900927 Z" fill-opacity="0.0" id="id24" stroke="#A17FFF" stroke-width="0" /><text><textPath font-family="consolas" xlink:href="#id24">.</textPath></text><path d="M 228.72101575749275 319.8823138833589 A 74.0 74.0 0 1 1 238.3536304387188 340.9356216505129 Z" fill-opacity="0.0" id="id25" stroke="#A17FFF" stroke-width="0" /><text><textPath font-family="consolas" xlink:href="#id25"> </textPath></text><path d="M 226.53817323990918 291.09157651038043 A 74.0 74.0 0 1 1 227.38079670948852 314.22853869697684 Z" fill-opacity="0.0" id="id26" stroke="#A17FFF" stroke-width="0" /><text><textPath font-family="consolas" xlink:href="#id26">.</textPath></text><path d="M 235.53922791343155 263.6570658586366 A 74.0 74.0 0 1 1 227.46357838652153 285.3552897088507 Z" fill-opacity="0.0" id="id27" stroke="#A17FFF" stroke-width="0" /><text><textPath font-family="consolas" xlink:href="#id27">.</textPath></text><path d="M 254.35385079877992 241.7554374803969 A 74.0 74.0 0 1 1 238.5893727099074 258.71156510792235 Z" fill-opacity="0.0" id="id28" stroke="#A17FFF" stroke-width="0" /><text><textPath font-family="consolas" xlink:href="#id28">.</textPath></text><path d="M 273.51778962655214 230.9008499781911 A 74.0 74.0 0 1 1 253.46110960483028 242.4662561553102 Z" fill-opacity="0.0" id="id29" stroke="#A17FFF" stroke-width="0" /><text><textPath font-family="consolas" xlink:href="#id29">N-1</textPath></text></svg>